<svg id="svg" version="1.1" xmlns="http://www.w3.org/2000/svg" xmlns:xlink="http://www.w3.org/1999/xlink" width="400" height="400" viewBox="0, 0, 400,400"><g id="svgg"><path id="path0" d="M55.516 124.267 C 52.367 125.198,51.600 127.073,51.600 133.840 C 51.600 140.190,52.200 140.789,59.003 141.231 C 66.186 141.696,66.810 142.172,68.182 148.226 C 68.534 149.781,69.152 151.671,69.556 152.426 C 69.960 153.182,70.773 156.109,71.364 158.931 C 71.955 161.754,72.886 165.076,73.434 166.314 C 73.981 167.552,74.955 170.766,75.598 173.455 C 76.240 176.145,77.052 179.029,77.401 179.865 C 77.750 180.700,78.660 183.860,79.422 186.887 C 80.184 189.914,81.142 193.247,81.552 194.295 C 81.961 195.343,82.784 198.270,83.382 200.800 C 83.980 203.330,84.897 206.480,85.420 207.800 C 85.943 209.120,86.915 212.616,87.580 215.570 C 88.245 218.523,89.226 221.776,89.761 222.798 C 90.295 223.820,91.022 226.335,91.376 228.387 C 91.730 230.438,92.550 233.439,93.197 235.055 C 93.844 236.671,94.776 239.913,95.268 242.259 C 96.324 247.292,97.055 248.499,100.000 250.067 L 102.200 251.239 111.818 251.120 C 122.556 250.986,122.706 250.950,124.575 248.090 C 125.848 246.143,127.829 240.341,128.589 236.333 C 128.921 234.584,129.732 231.805,130.391 230.158 C 131.051 228.510,131.970 225.236,132.434 222.881 C 132.898 220.527,133.795 217.411,134.428 215.958 C 135.061 214.504,136.037 211.143,136.598 208.487 C 137.158 205.832,138.070 202.670,138.624 201.461 C 139.177 200.252,139.902 197.944,140.234 196.331 C 141.127 191.995,141.554 190.460,142.610 187.777 C 143.134 186.445,144.019 183.248,144.576 180.673 C 145.132 178.098,145.926 175.319,146.340 174.496 C 146.753 173.673,147.318 172.280,147.595 171.400 C 149.431 165.558,150.550 165.738,151.817 172.078 C 152.111 173.550,152.887 175.980,153.542 177.478 C 154.200 178.984,155.084 182.179,155.521 184.629 C 155.955 187.064,156.784 190.214,157.363 191.629 C 157.942 193.043,158.858 196.221,159.399 198.691 C 159.940 201.161,160.851 204.295,161.424 205.656 C 161.997 207.017,162.825 210.026,163.264 212.343 C 163.703 214.660,164.427 217.465,164.872 218.577 C 166.494 222.628,166.760 223.526,167.362 226.975 C 167.699 228.906,168.537 231.943,169.224 233.725 C 169.911 235.507,170.921 239.129,171.468 241.774 C 172.634 247.412,173.061 248.255,175.541 249.824 L 177.400 251.000 187.600 251.000 L 197.800 251.000 199.235 249.902 C 201.458 248.201,202.678 245.485,204.180 238.886 C 204.927 235.606,205.982 231.859,206.524 230.561 C 207.066 229.262,207.983 225.976,208.563 223.258 C 209.142 220.539,210.050 217.389,210.581 216.258 C 211.111 215.126,212.008 211.987,212.575 209.282 C 213.141 206.577,214.062 203.279,214.620 201.953 C 215.178 200.627,216.004 197.710,216.456 195.471 C 216.908 193.232,217.815 190.167,218.471 188.660 C 219.127 187.153,220.032 184.003,220.481 181.660 C 220.930 179.317,221.804 176.320,222.423 175.000 C 223.045 173.671,224.013 170.280,224.592 167.400 C 225.166 164.540,225.824 161.861,226.054 161.447 C 226.865 159.989,227.657 157.353,228.632 152.866 C 231.089 141.565,231.619 141.210,246.051 141.203 C 255.046 141.200,254.749 141.123,255.567 143.664 C 255.929 144.789,256.348 224.031,256.024 230.269 C 255.918 232.324,254.041 233.200,249.745 233.200 C 245.039 233.200,244.041 233.537,242.059 235.793 L 240.800 237.228 240.800 241.954 C 240.800 247.205,241.608 249.156,244.372 250.586 C 246.165 251.513,297.835 251.513,299.628 250.586 C 302.349 249.178,303.200 247.180,303.200 242.199 C 303.200 235.038,301.354 233.218,294.077 233.207 C 289.190 233.199,286.571 232.634,285.772 231.414 C 285.016 230.260,284.782 202.716,285.517 201.351 C 286.338 199.824,288.681 199.600,303.793 199.600 C 323.044 199.600,324.353 198.871,323.932 188.388 C 323.582 179.664,322.992 179.401,303.800 179.396 C 287.590 179.392,286.312 179.243,285.533 177.261 C 284.924 175.710,284.990 145.473,285.606 143.985 C 286.634 141.503,287.374 141.400,304.200 141.400 L 319.400 141.400 322.732 142.769 C 327.473 144.717,330.240 147.704,332.022 152.797 C 332.615 154.490,333.372 156.308,333.705 156.838 C 334.038 157.367,334.535 158.790,334.809 160.000 C 335.984 165.176,336.679 165.794,341.957 166.362 C 346.055 166.803,346.139 166.795,347.822 165.808 C 351.364 163.732,351.256 164.423,351.120 144.721 C 350.987 125.588,351.066 126.160,348.376 124.788 C 346.285 123.721,198.535 123.496,196.484 124.557 C 193.908 125.888,192.946 128.879,193.332 134.350 C 193.737 140.092,195.241 141.385,201.352 141.245 C 206.522 141.126,208.692 141.632,209.045 143.038 C 209.518 144.920,207.634 154.225,205.814 159.000 C 205.227 160.540,204.218 164.399,203.571 167.575 C 202.924 170.751,201.940 174.488,201.383 175.879 C 200.827 177.269,199.841 180.910,199.193 183.969 C 198.544 187.028,197.640 190.165,197.183 190.939 C 196.726 191.713,196.023 194.204,195.621 196.473 C 194.446 203.097,194.191 203.764,192.143 205.567 C 189.879 207.560,189.804 207.515,189.003 203.692 C 187.706 197.499,187.050 194.966,186.312 193.296 C 185.898 192.358,185.104 189.388,184.548 186.696 C 183.992 184.003,183.026 180.630,182.401 179.200 C 181.776 177.770,180.902 174.675,180.457 172.323 C 180.013 169.971,179.118 166.821,178.470 165.323 C 177.821 163.825,177.083 161.340,176.830 159.800 C 176.272 156.407,175.373 153.151,174.400 151.000 C 174.003 150.120,173.194 147.060,172.605 144.200 C 172.015 141.340,171.101 138.040,170.573 136.868 C 170.046 135.695,169.250 133.201,168.805 131.326 C 167.112 124.199,166.111 123.744,152.442 123.889 C 140.549 124.015,140.619 123.995,138.764 127.878 C 137.016 131.537,136.513 133.156,135.585 138.116 C 135.124 140.582,134.292 143.569,133.737 144.752 C 133.181 145.936,132.294 148.951,131.764 151.452 C 131.234 153.953,130.286 157.485,129.657 159.300 C 129.028 161.116,128.026 164.927,127.430 167.769 C 126.834 170.611,125.995 173.625,125.566 174.466 C 125.137 175.308,124.230 178.472,123.550 181.498 C 122.871 184.524,121.910 188.080,121.415 189.400 C 120.919 190.720,120.022 194.140,119.421 197.000 C 118.297 202.351,117.580 203.920,115.228 206.173 C 113.746 207.593,113.595 207.339,112.401 201.400 C 111.915 198.980,111.064 195.920,110.510 194.600 C 109.956 193.280,109.081 190.087,108.566 187.504 C 108.050 184.921,107.162 181.641,106.591 180.215 C 106.021 178.789,105.112 175.537,104.572 172.988 C 104.033 170.440,103.161 167.330,102.635 166.077 C 102.109 164.825,101.135 161.255,100.471 158.145 C 99.806 155.035,98.915 151.795,98.490 150.945 C 96.869 147.701,96.490 143.239,97.704 141.700 C 97.980 141.349,99.547 141.199,102.949 141.198 C 111.975 141.194,112.586 140.617,112.323 132.360 C 112.125 126.164,111.669 124.925,109.370 124.335 C 107.295 123.802,57.303 123.739,55.516 124.267 M108.102 126.278 C 110.533 127.401,110.889 128.329,110.820 133.358 C 110.739 139.268,109.784 140.000,102.159 140.000 C 94.870 140.000,93.601 144.143,97.758 154.373 C 98.293 155.691,99.225 158.891,99.829 161.484 C 100.432 164.078,101.239 166.832,101.623 167.605 C 102.006 168.377,102.902 171.617,103.615 174.804 C 104.328 177.992,105.317 181.680,105.813 183.000 C 106.310 184.320,107.008 186.959,107.364 188.864 C 107.721 190.769,108.641 194.189,109.409 196.464 C 110.177 198.739,111.166 202.106,111.606 203.948 C 113.107 210.217,113.652 210.770,116.314 208.725 C 118.323 207.180,118.826 205.996,120.193 199.575 C 120.776 196.839,121.693 193.610,122.230 192.400 C 122.767 191.190,123.638 188.040,124.166 185.400 C 124.693 182.760,125.601 179.340,126.183 177.800 C 126.764 176.260,127.797 172.660,128.476 169.800 C 129.156 166.940,130.116 163.520,130.610 162.200 C 131.104 160.880,131.983 157.426,132.564 154.525 C 133.146 151.624,134.042 148.294,134.557 147.125 C 135.072 145.956,135.800 143.560,136.177 141.800 C 136.553 140.040,137.366 136.980,137.985 135.000 C 138.603 133.020,139.214 130.939,139.343 130.376 C 140.349 125.980,142.955 125.113,154.600 125.299 L 162.200 125.420 164.441 126.885 C 166.886 128.482,167.270 129.163,168.003 133.200 C 168.262 134.630,168.984 137.275,169.607 139.078 C 170.231 140.881,171.216 144.531,171.798 147.189 C 172.379 149.847,173.202 152.807,173.626 153.766 C 174.050 154.725,175.017 158.095,175.774 161.255 C 176.532 164.415,177.506 167.810,177.939 168.800 C 178.373 169.790,179.123 172.580,179.605 175.000 C 180.088 177.420,180.924 180.454,181.464 181.742 C 182.004 183.030,182.878 186.041,183.408 188.434 C 183.937 190.827,184.911 194.363,185.573 196.292 C 186.234 198.222,187.139 201.455,187.584 203.478 C 189.039 210.098,189.568 210.682,192.455 208.851 C 194.564 207.513,195.371 205.469,196.800 197.832 C 197.250 195.430,197.977 192.885,198.415 192.176 C 198.853 191.468,199.396 189.833,199.623 188.544 C 200.319 184.578,201.557 179.767,202.368 177.874 C 202.793 176.883,203.523 174.300,203.990 172.136 C 205.279 166.158,205.960 163.631,206.992 161.000 C 207.510 159.680,208.220 156.926,208.570 154.880 C 208.920 152.834,209.655 150.094,210.203 148.792 C 213.097 141.917,211.393 139.943,202.600 139.985 C 196.027 140.016,195.596 139.692,195.300 134.492 C 195.057 130.231,195.605 127.710,197.076 126.328 L 198.064 125.400 272.132 125.400 C 330.111 125.400,346.387 125.507,347.061 125.893 C 349.473 127.275,349.589 128.279,349.364 145.800 C 349.140 163.242,349.211 162.728,346.775 164.433 C 345.950 165.011,345.327 165.066,342.727 164.793 C 337.787 164.274,337.658 164.159,335.771 158.599 C 329.762 140.904,327.871 139.864,302.065 140.073 L 286.330 140.200 285.379 141.306 C 283.710 143.247,283.571 144.762,283.630 160.332 C 283.692 176.598,283.818 178.000,285.363 179.546 L 286.417 180.600 302.309 180.708 C 320.105 180.830,319.450 180.723,321.165 183.775 C 323.477 187.890,322.977 192.709,319.911 195.871 L 318.290 197.542 302.845 197.706 C 285.616 197.888,286.077 197.826,284.756 200.132 C 283.805 201.791,283.799 201.880,283.673 215.863 C 283.497 235.259,283.278 234.782,292.544 235.116 L 298.127 235.316 299.663 236.705 L 301.200 238.093 301.200 242.165 L 301.200 246.238 299.696 247.706 L 298.192 249.175 280.996 249.176 C 271.538 249.177,263.260 249.181,262.600 249.185 C 261.940 249.189,257.892 249.189,253.605 249.185 L 245.811 249.178 244.305 247.708 L 242.800 246.238 242.800 242.165 L 242.800 238.093 244.401 236.647 L 246.002 235.200 249.839 235.200 C 254.367 235.200,255.607 234.664,256.805 232.189 C 257.719 230.302,258.079 146.301,257.188 143.118 C 256.334 140.072,256.035 140.000,244.239 140.000 L 233.786 140.000 232.307 141.005 C 230.054 142.535,228.965 144.801,227.790 150.402 C 227.193 153.242,226.149 156.717,225.370 158.450 C 224.617 160.128,223.997 161.928,223.994 162.450 C 223.982 164.181,222.470 170.570,221.620 172.476 C 221.160 173.508,220.345 176.338,219.808 178.765 C 219.271 181.192,218.467 184.038,218.021 185.089 C 217.082 187.304,215.491 192.766,214.807 196.125 C 214.546 197.404,213.997 199.208,213.587 200.135 C 213.177 201.062,212.455 203.616,211.981 205.810 C 211.508 208.005,210.494 211.407,209.729 213.371 C 208.964 215.336,208.093 218.335,207.794 220.036 C 207.084 224.071,206.479 226.274,205.607 227.998 C 205.217 228.769,204.346 231.830,203.671 234.800 C 200.411 249.141,200.370 249.176,186.556 249.190 L 177.713 249.200 175.864 247.572 C 173.790 245.747,173.416 244.797,171.988 237.737 C 171.506 235.352,170.783 232.754,170.380 231.964 C 169.978 231.175,169.024 227.935,168.259 224.764 C 167.494 221.594,166.490 218.040,166.027 216.866 C 165.564 215.693,164.755 212.704,164.230 210.224 C 163.705 207.744,162.917 205.014,162.479 204.156 C 161.507 202.250,160.983 200.355,160.216 195.966 C 159.893 194.115,159.154 191.435,158.575 190.011 C 157.995 188.587,157.012 185.050,156.390 182.152 C 155.767 179.254,154.898 176.175,154.457 175.311 C 154.016 174.447,153.295 172.292,152.854 170.522 C 151.917 166.757,150.486 163.511,149.848 163.702 C 149.113 163.923,145.325 171.977,144.438 175.204 C 143.986 176.852,143.154 179.820,142.590 181.800 C 141.233 186.565,139.666 192.431,138.958 195.400 C 138.644 196.720,138.048 198.610,137.635 199.600 C 137.222 200.590,136.388 203.470,135.781 206.000 C 135.175 208.530,134.145 211.943,133.492 213.584 C 132.840 215.226,132.057 217.993,131.753 219.734 C 131.449 221.474,130.759 223.911,130.219 225.149 C 129.679 226.387,128.968 228.570,128.640 230.000 C 127.081 236.786,126.264 239.883,125.789 240.811 C 125.504 241.367,124.996 242.876,124.660 244.164 C 123.409 248.956,122.412 249.307,110.274 249.234 C 98.581 249.164,97.943 248.759,96.255 240.336 C 95.697 237.551,94.787 234.195,94.233 232.878 C 93.679 231.561,92.876 228.890,92.450 226.942 C 92.023 224.994,91.039 221.420,90.263 219.000 C 89.487 216.580,88.478 213.000,88.020 211.045 C 87.563 209.090,86.827 206.671,86.384 205.671 C 85.493 203.656,84.220 198.821,83.819 195.928 C 83.676 194.898,83.115 193.188,82.573 192.128 C 82.030 191.067,81.032 187.680,80.353 184.600 C 79.675 181.520,78.700 177.997,78.185 176.772 C 77.671 175.547,76.778 172.667,76.200 170.372 C 75.622 168.077,74.730 165.026,74.217 163.592 C 73.703 162.157,72.904 159.234,72.441 157.095 C 71.978 154.957,71.315 152.441,70.968 151.504 C 70.621 150.567,69.929 148.540,69.430 146.999 C 67.483 140.988,66.937 140.528,61.164 140.040 C 53.605 139.401,53.306 139.124,53.240 132.731 C 53.195 128.422,53.901 126.947,56.580 125.748 C 58.958 124.684,105.691 125.165,108.102 126.278 M0.000 374.800 L 0.000 400.000 200.000 400.000 L 400.000 400.000 400.000 374.800 L 400.000 349.600 200.000 349.600 L 0.000 349.600 0.000 374.800 " stroke="none" fill="#fbca45" fill-rule="evenodd"></path><path id="path1" d="M56.580 125.748 C 53.901 126.947,53.195 128.422,53.240 132.731 C 53.306 139.124,53.605 139.401,61.164 140.040 C 66.937 140.528,67.483 140.988,69.430 146.999 C 69.929 148.540,70.621 150.567,70.968 151.504 C 71.315 152.441,71.978 154.957,72.441 157.095 C 72.904 159.234,73.703 162.157,74.217 163.592 C 74.730 165.026,75.622 168.077,76.200 170.372 C 76.778 172.667,77.671 175.547,78.185 176.772 C 78.700 177.997,79.675 181.520,80.353 184.600 C 81.032 187.680,82.030 191.067,82.573 192.128 C 83.115 193.188,83.676 194.898,83.819 195.928 C 84.220 198.821,85.493 203.656,86.384 205.671 C 86.827 206.671,87.563 209.090,88.020 211.045 C 88.478 213.000,89.487 216.580,90.263 219.000 C 91.039 221.420,92.023 224.994,92.450 226.942 C 92.876 228.890,93.679 231.561,94.233 232.878 C 94.787 234.195,95.697 237.551,96.255 240.336 C 97.943 248.759,98.581 249.164,110.274 249.234 C 122.412 249.307,123.409 248.956,124.660 244.164 C 124.996 242.876,125.504 241.367,125.789 240.811 C 126.264 239.883,127.081 236.786,128.640 230.000 C 128.968 228.570,129.679 226.387,130.219 225.149 C 130.759 223.911,131.449 221.474,131.753 219.734 C 132.057 217.993,132.840 215.226,133.492 213.584 C 134.145 211.943,135.175 208.530,135.781 206.000 C 136.388 203.470,137.222 200.590,137.635 199.600 C 138.048 198.610,138.644 196.720,138.958 195.400 C 139.666 192.431,141.233 186.565,142.590 181.800 C 143.154 179.820,143.986 176.852,144.438 175.204 C 145.325 171.977,149.113 163.923,149.848 163.702 C 150.486 163.511,151.917 166.757,152.854 170.522 C 153.295 172.292,154.016 174.447,154.457 175.311 C 154.898 176.175,155.767 179.254,156.390 182.152 C 157.012 185.050,157.995 188.587,158.575 190.011 C 159.154 191.435,159.893 194.115,160.216 195.966 C 160.983 200.355,161.507 202.250,162.479 204.156 C 162.917 205.014,163.705 207.744,164.230 210.224 C 164.755 212.704,165.564 215.693,166.027 216.866 C 166.490 218.040,167.494 221.594,168.259 224.764 C 169.024 227.935,169.978 231.175,170.380 231.964 C 170.783 232.754,171.506 235.352,171.988 237.737 C 173.416 244.797,173.790 245.747,175.864 247.572 L 177.713 249.200 186.556 249.190 C 200.370 249.176,200.411 249.141,203.671 234.800 C 204.346 231.830,205.217 228.769,205.607 227.998 C 206.479 226.274,207.084 224.071,207.794 220.036 C 208.093 218.335,208.964 215.336,209.729 213.371 C 210.494 211.407,211.508 208.005,211.981 205.810 C 212.455 203.616,213.177 201.062,213.587 200.135 C 213.997 199.208,214.546 197.404,214.807 196.125 C 215.491 192.766,217.082 187.304,218.021 185.089 C 218.467 184.038,219.271 181.192,219.808 178.765 C 220.345 176.338,221.160 173.508,221.620 172.476 C 222.470 170.570,223.982 164.181,223.994 162.450 C 223.997 161.928,224.617 160.128,225.370 158.450 C 226.149 156.717,227.193 153.242,227.790 150.402 C 228.965 144.801,230.054 142.535,232.307 141.005 L 233.786 140.000 244.239 140.000 C 256.035 140.000,256.334 140.072,257.188 143.118 C 258.079 146.301,257.719 230.302,256.805 232.189 C 255.607 234.664,254.367 235.200,249.839 235.200 L 246.002 235.200 244.401 236.647 L 242.800 238.093 242.800 242.165 L 242.800 246.238 244.305 247.708 L 245.811 249.178 253.605 249.185 C 257.892 249.189,261.940 249.189,262.600 249.185 C 263.260 249.181,271.538 249.177,280.996 249.176 L 298.192 249.175 299.696 247.706 L 301.200 246.238 301.200 242.165 L 301.200 238.093 299.663 236.705 L 298.127 235.316 292.544 235.116 C 283.278 234.782,283.497 235.259,283.673 215.863 C 283.799 201.880,283.805 201.791,284.756 200.132 C 286.077 197.826,285.616 197.888,302.845 197.706 L 318.290 197.542 319.911 195.871 C 322.977 192.709,323.477 187.890,321.165 183.775 C 319.450 180.723,320.105 180.830,302.309 180.708 L 286.417 180.600 285.363 179.546 C 283.818 178.000,283.692 176.598,283.630 160.332 C 283.571 144.762,283.710 143.247,285.379 141.306 L 286.330 140.200 302.065 140.073 C 327.871 139.864,329.762 140.904,335.771 158.599 C 337.658 164.159,337.787 164.274,342.727 164.793 C 345.327 165.066,345.950 165.011,346.775 164.433 C 349.211 162.728,349.140 163.242,349.364 145.800 C 349.589 128.279,349.473 127.275,347.061 125.893 C 346.387 125.507,330.111 125.400,272.132 125.400 L 198.064 125.400 197.076 126.328 C 195.605 127.710,195.057 130.231,195.300 134.492 C 195.596 139.692,196.027 140.016,202.600 139.985 C 211.393 139.943,213.097 141.917,210.203 148.792 C 209.655 150.094,208.920 152.834,208.570 154.880 C 208.220 156.926,207.510 159.680,206.992 161.000 C 205.960 163.631,205.279 166.158,203.990 172.136 C 203.523 174.300,202.793 176.883,202.368 177.874 C 201.557 179.767,200.319 184.578,199.623 188.544 C 199.396 189.833,198.853 191.468,198.415 192.176 C 197.977 192.885,197.250 195.430,196.800 197.832 C 195.371 205.469,194.564 207.513,192.455 208.851 C 189.568 210.682,189.039 210.098,187.584 203.478 C 187.139 201.455,186.234 198.222,185.573 196.292 C 184.911 194.363,183.937 190.827,183.408 188.434 C 182.878 186.041,182.004 183.030,181.464 181.742 C 180.924 180.454,180.088 177.420,179.605 175.000 C 179.123 172.580,178.373 169.790,177.939 168.800 C 177.506 167.810,176.532 164.415,175.774 161.255 C 175.017 158.095,174.050 154.725,173.626 153.766 C 173.202 152.807,172.379 149.847,171.798 147.189 C 171.216 144.531,170.231 140.881,169.607 139.078 C 168.984 137.275,168.262 134.630,168.003 133.200 C 167.270 129.163,166.886 128.482,164.441 126.885 L 162.200 125.420 154.600 125.299 C 142.955 125.113,140.349 125.980,139.343 130.376 C 139.214 130.939,138.603 133.020,137.985 135.000 C 137.366 136.980,136.553 140.040,136.177 141.800 C 135.800 143.560,135.072 145.956,134.557 147.125 C 134.042 148.294,133.146 151.624,132.564 154.525 C 131.983 157.426,131.104 160.880,130.610 162.200 C 130.116 163.520,129.156 166.940,128.476 169.800 C 127.797 172.660,126.764 176.260,126.183 177.800 C 125.601 179.340,124.693 182.760,124.166 185.400 C 123.638 188.040,122.767 191.190,122.230 192.400 C 121.693 193.610,120.776 196.839,120.193 199.575 C 118.826 205.996,118.323 207.180,116.314 208.725 C 113.652 210.770,113.107 210.217,111.606 203.948 C 111.166 202.106,110.177 198.739,109.409 196.464 C 108.641 194.189,107.721 190.769,107.364 188.864 C 107.008 186.959,106.310 184.320,105.813 183.000 C 105.317 181.680,104.328 177.992,103.615 174.804 C 102.902 171.617,102.006 168.377,101.623 167.605 C 101.239 166.832,100.432 164.078,99.829 161.484 C 99.225 158.891,98.293 155.691,97.758 154.373 C 93.601 144.143,94.870 140.000,102.159 140.000 C 109.784 140.000,110.739 139.268,110.820 133.358 C 110.935 124.970,112.565 125.426,82.000 125.301 C 62.252 125.220,57.576 125.302,56.580 125.748 " stroke="none" fill="#f9efee" fill-rule="evenodd"></path><path id="path2" d="M0.000 174.800 L 0.000 349.600 200.000 349.600 L 400.000 349.600 400.000 174.800 L 400.000 0.000 200.000 0.000 L 0.000 0.000 0.000 174.800 M109.370 124.335 C 111.669 124.925,112.125 126.164,112.323 132.360 C 112.586 140.617,111.975 141.194,102.949 141.198 C 99.547 141.199,97.980 141.349,97.704 141.700 C 96.490 143.239,96.869 147.701,98.490 150.945 C 98.915 151.795,99.806 155.035,100.471 158.145 C 101.135 161.255,102.109 164.825,102.635 166.077 C 103.161 167.330,104.033 170.440,104.572 172.988 C 105.112 175.537,106.021 178.789,106.591 180.215 C 107.162 181.641,108.050 184.921,108.566 187.504 C 109.081 190.087,109.956 193.280,110.510 194.600 C 111.064 195.920,111.915 198.980,112.401 201.400 C 113.595 207.339,113.746 207.593,115.228 206.173 C 117.580 203.920,118.297 202.351,119.421 197.000 C 120.022 194.140,120.919 190.720,121.415 189.400 C 121.910 188.080,122.871 184.524,123.550 181.498 C 124.230 178.472,125.137 175.308,125.566 174.466 C 125.995 173.625,126.834 170.611,127.430 167.769 C 128.026 164.927,129.028 161.116,129.657 159.300 C 130.286 157.485,131.234 153.953,131.764 151.452 C 132.294 148.951,133.181 145.936,133.737 144.752 C 134.292 143.569,135.124 140.582,135.585 138.116 C 136.513 133.156,137.016 131.537,138.764 127.878 C 140.619 123.995,140.549 124.015,152.442 123.889 C 166.111 123.744,167.112 124.199,168.805 131.326 C 169.250 133.201,170.046 135.695,170.573 136.868 C 171.101 138.040,172.015 141.340,172.605 144.200 C 173.194 147.060,174.003 150.120,174.400 151.000 C 175.373 153.151,176.272 156.407,176.830 159.800 C 177.083 161.340,177.821 163.825,178.470 165.323 C 179.118 166.821,180.013 169.971,180.457 172.323 C 180.902 174.675,181.776 177.770,182.401 179.200 C 183.026 180.630,183.992 184.003,184.548 186.696 C 185.104 189.388,185.898 192.358,186.312 193.296 C 187.050 194.966,187.706 197.499,189.003 203.692 C 189.804 207.515,189.879 207.560,192.143 205.567 C 194.191 203.764,194.446 203.097,195.621 196.473 C 196.023 194.204,196.726 191.713,197.183 190.939 C 197.640 190.165,198.544 187.028,199.193 183.969 C 199.841 180.910,200.827 177.269,201.383 175.879 C 201.940 174.488,202.924 170.751,203.571 167.575 C 204.218 164.399,205.227 160.540,205.814 159.000 C 207.634 154.225,209.518 144.920,209.045 143.038 C 208.692 141.632,206.522 141.126,201.352 141.245 C 195.241 141.385,193.737 140.092,193.332 134.350 C 192.946 128.879,193.908 125.888,196.484 124.557 C 198.535 123.496,346.285 123.721,348.376 124.788 C 351.066 126.160,350.987 125.588,351.120 144.721 C 351.256 164.423,351.364 163.732,347.822 165.808 C 346.139 166.795,346.055 166.803,341.957 166.362 C 336.679 165.794,335.984 165.176,334.809 160.000 C 334.535 158.790,334.038 157.367,333.705 156.838 C 333.372 156.308,332.615 154.490,332.022 152.797 C 330.240 147.704,327.473 144.717,322.732 142.769 L 319.400 141.400 304.200 141.400 C 287.374 141.400,286.634 141.503,285.606 143.985 C 284.990 145.473,284.924 175.710,285.533 177.261 C 286.312 179.243,287.590 179.392,303.800 179.396 C 322.992 179.401,323.582 179.664,323.932 188.388 C 324.353 198.871,323.044 199.600,303.793 199.600 C 288.681 199.600,286.338 199.824,285.517 201.351 C 284.782 202.716,285.016 230.260,285.772 231.414 C 286.571 232.634,289.190 233.199,294.077 233.207 C 301.354 233.218,303.200 235.038,303.200 242.199 C 303.200 247.180,302.349 249.178,299.628 250.586 C 297.835 251.513,246.165 251.513,244.372 250.586 C 241.608 249.156,240.800 247.205,240.800 241.954 L 240.800 237.228 242.059 235.793 C 244.041 233.537,245.039 233.200,249.745 233.200 C 254.041 233.200,255.918 232.324,256.024 230.269 C 256.348 224.031,255.929 144.789,255.567 143.664 C 254.749 141.123,255.046 141.200,246.051 141.203 C 231.619 141.210,231.089 141.565,228.632 152.866 C 227.657 157.353,226.865 159.989,226.054 161.447 C 225.824 161.861,225.166 164.540,224.592 167.400 C 224.013 170.280,223.045 173.671,222.423 175.000 C 221.804 176.320,220.930 179.317,220.481 181.660 C 220.032 184.003,219.127 187.153,218.471 188.660 C 217.815 190.167,216.908 193.232,216.456 195.471 C 216.004 197.710,215.178 200.627,214.620 201.953 C 214.062 203.279,213.141 206.577,212.575 209.282 C 212.008 211.987,211.111 215.126,210.581 216.258 C 210.050 217.389,209.142 220.539,208.563 223.258 C 207.983 225.976,207.066 229.262,206.524 230.561 C 205.982 231.859,204.927 235.606,204.180 238.886 C 202.678 245.485,201.458 248.201,199.235 249.902 L 197.800 251.000 187.600 251.000 L 177.400 251.000 175.541 249.824 C 173.061 248.255,172.634 247.412,171.468 241.774 C 170.921 239.129,169.911 235.507,169.224 233.725 C 168.537 231.943,167.699 228.906,167.362 226.975 C 166.760 223.526,166.494 222.628,164.872 218.577 C 164.427 217.465,163.703 214.660,163.264 212.343 C 162.825 210.026,161.997 207.017,161.424 205.656 C 160.851 204.295,159.940 201.161,159.399 198.691 C 158.858 196.221,157.942 193.043,157.363 191.629 C 156.784 190.214,155.955 187.064,155.521 184.629 C 155.084 182.179,154.200 178.984,153.542 177.478 C 152.887 175.980,152.111 173.550,151.817 172.078 C 150.550 165.738,149.431 165.558,147.595 171.400 C 147.318 172.280,146.753 173.673,146.340 174.496 C 145.926 175.319,145.132 178.098,144.576 180.673 C 144.019 183.248,143.134 186.445,142.610 187.777 C 141.554 190.460,141.127 191.995,140.234 196.331 C 139.902 197.944,139.177 200.252,138.624 201.461 C 138.070 202.670,137.158 205.832,136.598 208.487 C 136.037 211.143,135.061 214.504,134.428 215.958 C 133.795 217.411,132.898 220.527,132.434 222.881 C 131.970 225.236,131.051 228.510,130.391 230.158 C 129.732 231.805,128.921 234.584,128.589 236.333 C 127.829 240.341,125.848 246.143,124.575 248.090 C 122.706 250.950,122.556 250.986,111.818 251.120 L 102.200 251.239 100.000 250.067 C 97.055 248.499,96.324 247.292,95.268 242.259 C 94.776 239.913,93.844 236.671,93.197 235.055 C 92.550 233.439,91.730 230.438,91.376 228.387 C 91.022 226.335,90.295 223.820,89.761 222.798 C 89.226 221.776,88.245 218.523,87.580 215.570 C 86.915 212.616,85.943 209.120,85.420 207.800 C 84.897 206.480,83.980 203.330,83.382 200.800 C 82.784 198.270,81.961 195.343,81.552 194.295 C 81.142 193.247,80.184 189.914,79.422 186.887 C 78.660 183.860,77.750 180.700,77.401 179.865 C 77.052 179.029,76.240 176.145,75.598 173.455 C 74.955 170.766,73.981 167.552,73.434 166.314 C 72.886 165.076,71.955 161.754,71.364 158.931 C 70.773 156.109,69.960 153.182,69.556 152.426 C 69.152 151.671,68.534 149.781,68.182 148.226 C 66.810 142.172,66.186 141.696,59.003 141.231 C 52.200 140.789,51.600 140.190,51.600 133.840 C 51.600 127.073,52.367 125.198,55.516 124.267 C 57.303 123.739,107.295 123.802,109.370 124.335 " stroke="none" fill="#d41c2a" fill-rule="evenodd"></path></g></svg>